<svg xmlns="http://www.w3.org/2000/svg" viewBox="0 0 64 64">
  <defs>
    <linearGradient id="g" x1="8" y1="6" x2="56" y2="58" gradientUnits="userSpaceOnUse">
      <stop stop-color="#38BDF8"/>
      <stop offset="0.52" stop-color="#0071E3"/>
      <stop offset="1" stop-color="#4F46E5"/>
    </linearGradient>
  </defs>
  <rect width="64" height="64" rx="17" fill="#0B0B0F"/>
  <path d="M17 20.5C17 15.8 20.8 12 25.5 12h20.7a3.8 3.8 0 0 1 0 7.6H26.1c-1.1 0-2 .9-2 2s.9 2 2 2h12.3c6.9 0 12.6 5.6 12.6 12.6S45.3 48.8 38.4 48.8H17.8a3.8 3.8 0 1 1 0-7.6h20c3.3 0 6-2.7 6-6s-2.7-6-6-6H25.5c-4.7 0-8.5-3.8-8.5-8.7Z" fill="url(#g)"/>
  <circle cx="18" cy="45" r="3.8" fill="#7DD3FC"/>
  <circle cx="47" cy="16" r="3.8" fill="#818CF8"/>
</svg>
